<?xml version="1.0" encoding="utf-8"?>
<svg viewBox="0 0 1024 1024" xmlns="http://www.w3.org/2000/svg">
  <path d="M 510.246 0 C 228.447 0 0 228.447 0 510.244 C 0 792.044 228.447 1020.49 510.246 1020.49 C 792.045 1020.49 1020.49 792.044 1020.49 510.246 C 1020.49 228.445 792.045 0 510.246 0 Z M 845.503 445.071 C 779.624 445.809 718.134 425.899 663.968 389.029 L 663.968 647.858 C 663.968 762.894 585.436 861.708 474.088 887.516 C 322.183 922.171 193.694 812.298 177.472 681.043 C 160.512 549.785 244.148 434.748 372.457 408.936 C 397.529 403.777 434.121 403.777 454.615 408.202 L 454.615 546.83 C 448.76 545.355 443.155 543.884 437.258 543.144 C 387.114 534.296 338.613 559.366 318.702 605.089 C 298.796 650.808 312.149 703.9 352.709 734.871 C 386.629 761.417 424.279 765.099 462.624 747.404 C 500.968 730.445 521.403 699.477 525.828 657.445 C 526.564 651.547 526.353 644.909 526.353 638.269 L 526.353 140.523 C 526.353 126.513 526.82 126.672 540.83 126.672 L 650.706 126.672 C 658.815 126.672 661.768 128.067 662.505 137.655 C 668.403 223.194 733.36 296.158 816.686 307.217 C 825.536 308.691 835.261 309.387 845.509 310.125 L 845.509 445.07 L 845.503 445.07 L 845.503 445.071 Z" fill="#ffffff" p-id="12716" data-spm-anchor-id="a313x.search_index.0.i82.69403a81BDTnXY" class="selected" style="" transform="matrix(0.9999999999999999, 0, 0, 0.9999999999999999, -1.1368683772161603e-13, -2.842170943040401e-14)"/>
</svg>